<svg xmlns="http://www.w3.org/2000/svg" width="32" height="32" fill="none" viewBox="0 0 32 32"><path fill="#000" fill-rule="evenodd" d="M16 11C13.2386 11 11 13.2386 11 16C11 18.7614 13.2386 21 16 21C18.7614 21 21 18.7614 21 16C21 13.2386 18.7614 11 16 11ZM13 16C13 14.3431 14.3431 13 16 13C17.6569 13 19 14.3431 19 16C19 17.6569 17.6569 19 16 19C14.3431 19 13 17.6569 13 16Z" clip-rule="evenodd"/><path fill="#000" fill-rule="evenodd" d="M17.2351 2.2621C16.4488 1.91263 15.5513 1.91263 14.765 2.2621L7.17794 5.63412C6.48997 5.93988 5.93988 6.48997 5.63412 7.17794L2.2621 14.765C1.91263 15.5513 1.91263 16.4488 2.2621 17.2351L5.63412 24.8221C5.93988 25.5101 6.48997 26.0602 7.17794 26.366L14.765 29.738C15.5513 30.0875 16.4488 30.0875 17.2351 29.738L24.8221 26.366C25.5101 26.0602 26.0602 25.5101 26.366 24.8221L29.738 17.2351C30.0875 16.4488 30.0875 15.5513 29.738 14.765L26.366 7.17794C26.0602 6.48997 25.5101 5.93988 24.8221 5.63412L17.2351 2.2621ZM15.5884 4.11469C15.8505 3.9982 16.1496 3.9982 16.4117 4.11469L23.9988 7.48671C24.2281 7.58863 24.4115 7.77199 24.5134 8.00131L27.8854 15.5884C28.0019 15.8505 28.0019 16.1496 27.8854 16.4117L24.5134 23.9988C24.4115 24.2281 24.2281 24.4115 23.9988 24.5134L16.4117 27.8854C16.1496 28.0019 15.8505 28.0019 15.5884 27.8854L8.00132 24.5134C7.77199 24.4115 7.58863 24.2281 7.48671 23.9988L4.11469 16.4117C3.9982 16.1496 3.9982 15.8505 4.11469 15.5884L7.48671 8.00132C7.58863 7.77199 7.77199 7.58863 8.00131 7.48671L15.5884 4.11469Z" clip-rule="evenodd"/></svg>