<svg xmlns="http://www.w3.org/2000/svg" viewBox="0 0 32 32"><path d="M27.3 2H4.7C3.2 2 2 3.2 2 4.7v22.7C2 28.8 3.2 30 4.7 30h22.7c1.5 0 2.7-1.2 2.7-2.7V4.7C30 3.2 28.8 2 27.3 2zM4.7 4h22.7c.3 0 .6.3.6.7v5.9l-2.1-2.1c-1-1-2.7-1-3.8 0L17 13.6l-2.1-2.1c-1-1-2.7-1-3.8 0L4 18.6V4.7c0-.4.3-.7.7-.7zm22.6 24H4.7c-.4 0-.7-.3-.7-.7v-5.9l8.5-8.5c.3-.3.7-.3.9 0l8.8 8.8c.2.2.5.3.7.3s.5-.1.7-.3c.4-.4.4-1 0-1.4L18.4 15l5.1-5.1c.3-.3.7-.3.9 0l3.3 3.3c.1.1.1.1.2.1v14c.1.4-.2.7-.6.7z"/><path d="M8.9 9H9c.6 0 1-.4 1-1s-.5-1-1-1h-.1c-.6 0-1 .4-1 1s.4 1 1 1z"/></svg>